<?xml version="1.0" encoding="utf-8" ?>
<svg xmlns="http://www.w3.org/2000/svg" xmlns:xlink="http://www.w3.org/1999/xlink" width="512" height="512">
	<path fill="#2B659E" d="M108.347 143.454C111.351 142.549 114.966 142.489 118.099 142.136Q126.604 141.2 135.081 140.04C134.956 140.131 134.834 140.226 134.706 140.312C133.066 141.414 128.239 141.278 126.182 141.533Q126.408 142.138 126.669 142.728C126.26 143.355 126.032 143.498 126.109 144.261C126.601 144.678 127.129 144.731 127.754 144.697C129.714 144.589 131.419 143.955 133.389 144.46C129.82 144.884 110.605 146.635 109.128 147.765C109.048 149.274 109.064 150.825 108.876 152.322C108.424 150.895 108.636 148.903 108.629 147.396C107.397 147.554 105.935 147.784 104.706 147.578C105.856 147.413 111.067 147.085 111.747 146.718C113.448 145.799 115.372 146.582 117.109 145.85C116.758 144.837 116.625 143.896 116.499 142.836C112.87 143.379 109.139 143.682 105.481 143.987L106.259 143.876L106.275 143.767L108.347 143.454Z"/>
	<path fill="#2B659E" d="M347.582 274.668C358.209 269.334 368.588 263.488 379.118 257.963C382.622 256.125 386.079 253.927 389.708 252.375L390.412 252.844L391.131 252.667C391.126 252.739 391.119 252.811 391.116 252.883C391.084 253.523 391.042 253.901 391.363 254.476C390.928 255.797 387.328 257.469 387.546 258.13C383.556 260.825 378.746 262.952 374.468 265.199L350.072 277.963C348.646 278.698 347.547 280.18 346.192 280.824L346.003 280.63C346.482 279.972 347.113 279.459 347.713 278.912C347.417 277.968 346.471 276.502 346.587 275.559C346.633 275.189 347.282 274.88 347.582 274.668Z"/>
	<defs>
		<linearGradient id="gradient_0" gradientUnits="userSpaceOnUse" x1="127.58438" y1="134.7683" x2="167.92357" y2="144.26256">
			<stop offset="0" stop-color="#3B77B6"/>
			<stop offset="1" stop-color="#4A8FD6"/>
		</linearGradient>
	</defs>
	<path fill="url(#gradient_0)" d="M135.081 140.04L136.18 139.802C136.852 138.038 136.996 136.103 137.654 134.337C138.768 131.348 142.547 128.152 145.407 126.837C149.588 124.915 154.838 125.223 159.034 126.928C162.9 128.5 166.099 132.181 167.641 136.028C168.853 139.055 168.621 142.299 168.424 145.482C165.221 150.161 161.802 154.466 155.925 155.528C151.199 156.382 145.985 155.489 142.05 152.67C140.182 151.332 137.155 148.273 136.839 145.876C136.789 145.505 136.82 145.096 136.836 144.721C136.436 144.27 136.664 144.358 136.129 144.314C135.204 144.238 134.306 144.51 133.389 144.46C131.419 143.955 129.714 144.589 127.754 144.697C127.129 144.731 126.601 144.678 126.109 144.261C126.032 143.498 126.26 143.355 126.669 142.728Q126.408 142.138 126.182 141.533C128.239 141.278 133.066 141.414 134.706 140.312C134.834 140.226 134.956 140.131 135.081 140.04Z"/>
	<path fill="#4386CB" d="M388.66 158.26C389.253 159.051 389.545 160.229 389.887 161.157L389.767 161.535L389.502 161.557C388.826 162.561 388.007 163.403 386.979 164.052C384.827 165.41 382.381 166.228 380.048 167.212C375.019 169.335 369.98 171.296 364.866 173.201C363.253 173.802 360.14 174.545 359.027 175.808C357.344 177.719 359.328 183.345 356.586 187.096C355.247 188.928 353.952 191.159 352.207 192.616C348.854 195.418 343.881 196.492 339.604 196.057C335.211 195.61 330.996 193.352 328.288 189.847C325.276 185.948 324.841 180.429 325.498 175.705C326.086 171.484 328.37 167.985 331.767 165.492C335.715 162.595 340.188 161.592 345.024 162.447C349.523 163.243 353.483 166.688 356.081 170.325C356.146 170.416 356.21 170.509 356.274 170.602C356.358 170.532 356.442 170.462 356.527 170.394C356.656 170.29 356.789 170.19 356.918 170.085C357.399 169.697 357.844 169.353 358.408 169.084C360.873 167.912 386.076 158.231 387.241 158.25L388.66 158.26Z"/>
	<path fill="#4386CB" d="M389.708 252.375C390.861 251.739 392.165 251.259 392.963 250.182C393.592 247.413 392.896 244.276 393.021 241.435C393.294 235.186 398.123 228.19 403.352 224.902C409.057 221.315 417.115 221.291 423.475 222.774C428.504 223.947 433.102 228.02 435.772 232.359C438.714 237.14 440.064 243.905 438.78 249.42C438.084 252.413 433.372 259.858 430.74 261.435C424.161 265.377 415.765 266.656 408.348 264.616C404.027 263.428 399.17 260.537 396.919 256.533C396.474 255.742 396.255 254.932 396.103 254.044C394.538 254.36 389.242 257.227 387.546 258.13C387.328 257.469 390.928 255.797 391.363 254.476C391.042 253.901 391.084 253.523 391.116 252.883C391.119 252.811 391.126 252.739 391.131 252.667L390.412 252.844L389.708 252.375Z"/>
	<path fill="#4386CB" d="M442.141 190.468C442.513 189.253 443.009 186.572 444.094 185.878C444.817 185.926 445.264 186.172 445.795 186.646C448.079 188.688 449.48 191.874 450.992 194.497C452.363 196.876 453.877 199.216 455.125 201.66C459.13 209.504 462.115 217.823 465.041 226.11C466.488 230.21 468.058 234.264 469.267 238.445C470.141 241.468 470.76 244.572 471.576 247.615C472.697 251.798 474.174 256.085 474.967 260.33C475.543 263.412 475.521 266.629 475.972 269.739C476.509 273.438 477.702 277.019 477.922 280.768C478.244 286.252 477.979 291.773 478.289 297.272Q478.384 305.852 478.062 314.427C477.957 317.735 477.601 321.224 477.811 324.509C477.596 328.641 476.688 332.677 476.065 336.756Q474.644 345.725 472.576 354.568Q470.509 363.41 467.807 372.08Q465.105 380.75 461.782 389.201Q458.459 397.653 454.533 405.841C453.316 408.355 451.904 411.202 450.363 413.525C449.063 415.484 447.367 417.265 446.284 419.361C445.2 421.457 444.676 423.843 443.645 425.967C443.124 427.042 436.315 437.314 435.422 438.355C434.341 439.615 432.976 440.956 431.247 441.085C430.217 440.848 429.632 439.924 428.864 439.258C428.468 438.914 427.981 438.565 427.731 438.09C426.997 436.695 428.816 434.845 429.589 433.766C431.627 430.922 433.743 428.08 435.614 425.123C436.688 423.425 437.592 421.629 438.694 419.947C440.033 417.901 441.813 416.034 442.993 413.904C444.544 411.102 445.3 407.745 446.569 404.792C448.221 400.946 450.356 397.285 452.142 393.495C456.159 384.968 459.232 375.837 461.995 366.837C463.08 363.303 464.461 359.836 465.407 356.268C467.238 349.363 468.289 342.438 469.259 335.38C470.037 329.718 470.784 324.172 470.968 318.449C471.155 312.663 470.819 306.83 470.755 301.04C470.697 295.661 471.152 290.205 470.89 284.848C470.617 279.253 469.771 273.851 468.951 268.321C468.482 265.153 468.177 261.882 467.425 258.766C466.163 253.541 464.449 248.513 462.955 243.37C462.482 241.739 462.39 240.033 461.895 238.406C459.527 230.625 455.974 221.231 452.622 213.854C449.086 206.072 445.038 198.524 442.141 190.468Z"/>
	<path fill="#4386CB" d="M48.685 185.6C51.3093 186.612 53.046 188.109 54.9338 190.136C53.8306 193.432 51.7511 195.95 49.9652 198.877C44.7853 207.367 41.1126 216.978 37.5976 226.243Q35.5889 231.597 33.8613 237.047Q32.1336 242.498 30.6917 248.032Q29.2498 253.565 28.0975 259.166Q26.9453 264.766 26.0857 270.419Q25.2262 276.073 24.6618 281.763Q24.0973 287.453 23.8295 293.165Q23.5616 298.876 23.5911 304.594Q23.6206 310.312 23.9473 316.021C24.2635 320.758 25.2518 325.309 25.7858 330.002C26.6172 337.309 27.0929 344.699 28.7781 351.893C29.8613 356.517 31.4087 361.002 32.845 365.521C35.9704 375.356 38.9951 383.858 43.1914 393.285C46.0008 399.597 49.0594 406.215 52.5632 412.168C54.8802 416.105 57.5095 420.018 60.0338 423.829C62.6781 427.822 66.7274 432.361 67.8205 437.032L67.9032 437.393C67.389 438.607 67.1091 439.876 66.4788 441.043C66.3308 441.063 66.183 441.086 66.0347 441.104C64.8463 441.248 64.0392 440.992 63.1266 440.245C59.2091 437.041 52.7127 425.995 50.0383 421.388C48.0211 417.913 45.5999 415.157 43.5977 411.407C40.0101 404.686 36.5109 397.485 33.7368 390.389C31.5745 384.857 29.8139 379.17 27.9854 373.527C26.2489 368.168 24.3508 362.737 22.9496 357.279C21.9376 353.338 21.258 349.372 20.4735 345.385C19.876 342.348 19.0618 339.325 18.7325 336.244C14.4616 296.289 16.5651 264.217 29.9893 226.194C33.7823 215.451 37.8515 205.075 43.8321 195.318C44.9944 193.422 46.6353 191.396 47.5735 189.406C48.1822 188.115 47.702 186.82 48.685 185.6Z"/>
	<path fill="#4386CB" d="M50.1818 80.9064C46.7697 81.3694 43.2836 81.428 39.8451 81.2701C34.3041 81.0157 29.5003 78.1268 25.8339 74.0843C21.3339 69.1228 19.5028 63.4169 19.8796 56.7477C20.2252 50.6306 22.7217 45.1543 27.3576 41.1042C32.2115 36.8636 38.7945 35.8085 45.078 36.2292C51.3298 36.6478 56.9058 38.2057 61.1011 43.1239C64.3002 46.8743 67.476 54.6719 66.9281 59.565C66.9138 59.6926 66.8922 59.8193 66.8754 59.9465C66.2993 64.2909 64.0489 71.4769 60.9021 74.604C59.614 75.884 57.0685 77.2905 56.3045 78.9193C55.6093 80.4015 57.6691 85.5128 58.2014 86.9564C59.9687 91.75 62.9606 96.0567 64.7874 100.862C66.6208 105.685 67.6372 110.927 69.1841 115.862C69.8997 118.144 70.9374 120.255 71.7842 122.485L71.7408 122.78C70.898 123.224 69.9679 123.867 69.0274 124.008L68.9612 123.96C69.0427 123.551 68.9884 123.442 68.8634 123.057C68.4537 122.73 68.0229 122.394 67.6757 122C65.296 119.298 64.0012 114.623 62.6005 111.35L55.6007 94.8274C54.3329 91.9064 52.7229 89.1652 51.5847 86.1832C50.9423 84.5002 50.1241 82.7396 50.1818 80.9064Z"/>
	<path fill="#4386CB" d="M113.018 118.522C112.798 117.53 112.397 116.376 112.803 115.397C113.562 113.568 116.244 112.837 117.763 111.766C119.556 110.501 121.124 108.943 122.946 107.687C126.175 105.462 129.55 103.591 132.944 101.639C137.098 99.2491 141.094 96.8855 145.46 94.8954C151.393 92.1911 157.513 90.7224 163.617 88.5137C169.003 86.5649 174.152 83.996 179.616 82.2207C183.723 80.8862 187.866 80.0377 192.044 79.0256C194.303 78.4783 196.527 77.7279 198.801 77.2562C200.874 76.8262 202.983 76.5881 205.055 76.1553C207.533 75.6378 209.97 74.7913 212.473 74.4139C216.394 73.8227 220.455 73.8417 224.408 73.3353C228.067 72.8665 231.764 71.9155 235.43 71.6647C240.47 71.3197 245.679 71.6206 250.731 71.7094C254.158 71.7697 259.139 70.6746 262.33 71.8695C264.27 73.1036 268.521 72.9807 270.835 73.0988L271.267 73.1644C275.052 73.7186 279.024 73.4661 282.753 74.1439C285.362 74.6182 287.913 75.5288 290.515 76.0735C301.959 78.4683 313.393 80.9797 324.463 84.812C326.583 85.5459 328.591 86.5497 330.663 87.4002C333.461 88.548 336.344 89.6016 339.164 90.709C341.161 91.4927 343.256 92.0153 345.256 92.7914C349.429 94.4108 353.712 96.5871 357.68 98.667C361.109 100.464 364.387 102.638 367.737 104.587C371.856 106.983 380.649 111.893 383.267 115.512C383.745 116.173 384.269 117.095 384.181 117.939C384.111 118.611 383.775 119.001 383.237 119.365C382.132 120.113 380.82 120.608 379.682 121.346C375.88 119.024 372.311 116.317 368.546 113.923C360.326 108.694 351.939 104.066 343.255 99.6599C339.273 97.6398 335.332 95.5285 331.17 93.8984C325.557 91.7002 319.594 90.7656 313.807 89.1674C308.663 87.7469 303.677 86.0094 298.462 84.7888C292.999 83.5102 287.425 82.1359 281.866 81.3615C278.208 80.852 274.093 81.1017 270.563 80.1104C259.159 77.8661 239.609 78.0186 228.16 79.8112C225.034 80.6201 221.708 80.7105 218.502 81.0156Q212.885 81.4947 207.361 82.6193C198.527 84.4144 191.618 86.3385 183.051 88.7436C174.234 91.2189 165.517 93.7567 157.1 97.4284C151.25 99.9803 145.577 103.128 139.963 106.159C131.782 110.575 123.943 115.226 117.246 121.736C115.723 120.747 114.348 119.763 113.018 118.522Z"/>
	<path fill="#002846" d="M71.7842 122.485C77.9216 119.706 84.2945 120.791 90.3751 123.064C98.7093 126.181 104.28 132.06 107.857 140.138C108.347 141.245 108.426 142.262 108.347 143.454L106.275 143.767L106.259 143.876L105.481 143.987C109.139 143.682 112.87 143.379 116.499 142.836C116.625 143.896 116.758 144.837 117.109 145.85C115.372 146.582 113.448 145.799 111.747 146.718C111.067 147.085 105.856 147.413 104.706 147.578C105.935 147.784 107.397 147.554 108.629 147.396C108.636 148.903 108.424 150.895 108.876 152.322C108.395 156.798 107.587 160.674 105.233 164.584C104.587 165.658 103.765 166.609 103.129 167.68C102.426 168.129 102.068 168.664 101.603 169.334L101.659 169.665C101.158 170.154 100.641 170.64 100.056 171.028C91.7383 176.544 83.4408 178.965 73.4858 176.825C67.7054 175.582 60.7639 169.069 57.6697 164.176C55.9607 161.473 53.3529 154.137 52.8784 150.964C52.6537 149.461 52.7879 147.873 53.1535 146.402C53.6393 144.448 54.3811 142.502 55.0503 140.603C57.3543 134.065 59.5461 131.089 64.9993 126.889C66.3099 125.879 67.5457 124.825 68.9612 123.96L69.0274 124.008C69.9679 123.867 70.898 123.224 71.7408 122.78L71.7842 122.485Z"/>
	<path fill="#002846" d="M85.9327 298.409C85.0984 300.11 84.1483 301.454 82.7297 302.71C77.4797 307.361 70.6005 307.258 63.9787 306.791C59.3865 306.467 54.2334 304.035 51.2515 300.49C47.7963 296.382 44.3865 288.678 44.9276 283.292C45.5931 276.667 49.0564 269.813 54.2675 265.623C58.6521 262.098 62.2246 261.273 67.7588 261.235C69.6173 261.223 71.5184 261.162 73.3674 261.37C79.8867 262.102 84.0724 266.345 87.9327 271.301C92.7653 277.505 90.8926 287.605 89.993 294.862C94.7641 295.999 103.713 302.35 108.598 304.913C111.248 306.303 114.149 307.248 116.835 308.61C118.482 309.253 119.748 310.397 121.227 311.323C123.428 312.514 125.598 313.922 127.619 315.401C134.523 318.671 142.005 322.434 148.141 327.013C150.52 322.286 154.933 318.53 159.803 316.519C161.4 315.86 163.056 315.569 164.639 314.831L164.959 314.678C165.068 314.672 165.177 314.669 165.286 314.661C167.498 314.515 169.639 313.886 171.926 313.85C177.407 313.762 185.137 317.062 189.336 320.557C194.932 325.215 198.451 332.875 199.055 340.06C199.651 347.141 197.976 354.237 193.276 359.708C190.115 363.387 185.591 365.921 181.094 367.595C179.813 368.073 178.25 368.268 177.056 368.872C172.465 369.747 165.34 369.281 160.964 367.578C155.854 365.589 150.074 362.044 147.011 357.363C146.202 356.126 145.769 354.714 145.17 353.374C144.815 353.169 144.196 352.905 143.926 352.613C142.649 351.233 143.729 332.977 144.131 330.421C141.131 329.557 138.474 327.806 135.767 326.282C131.665 323.972 127.479 321.728 123.469 319.261C120.375 317.358 117.476 315.195 114.286 313.436C111.25 311.761 108.159 310.082 105.026 308.599C98.835 305.666 91.146 302.834 85.9327 298.409Z"/>
	<path fill="#00142A" d="M116.835 308.61C118.482 309.253 119.748 310.397 121.227 311.323C123.428 312.514 125.598 313.922 127.619 315.401L127.404 315.521C126.022 315.472 124.908 313.711 123.521 313.337C122.947 313.183 122.908 313.367 122.425 313.652C121.067 313.148 119.734 312.578 118.498 311.816C117.649 311.293 116.723 310.635 116.485 309.654C116.627 309.375 116.736 309.15 116.798 308.839C116.814 308.763 116.823 308.686 116.835 308.61Z"/>
	<path fill="#4386CB" d="M249.003 121.266Q250.238 121.178 251.477 121.151Q252.715 121.124 253.953 121.157Q255.191 121.191 256.426 121.285Q257.661 121.379 258.89 121.534Q260.118 121.688 261.338 121.903Q262.558 122.117 263.766 122.391Q264.974 122.665 266.166 122.998Q267.359 123.331 268.534 123.722Q269.71 124.113 270.864 124.561Q272.019 125.009 273.15 125.514Q274.281 126.018 275.386 126.577Q276.492 127.136 277.568 127.748Q278.645 128.361 279.69 129.025Q280.735 129.689 281.746 130.404Q282.758 131.119 283.733 131.883Q284.708 132.646 285.644 133.457Q286.581 134.267 287.477 135.123Q288.372 135.978 289.225 136.876Q290.078 137.774 290.885 138.713Q291.693 139.652 292.454 140.63Q293.214 141.607 293.926 142.62Q294.638 143.634 295.299 144.681Q295.961 145.728 296.57 146.806Q297.179 147.885 297.735 148.992Q298.29 150.098 298.791 151.231Q299.292 152.364 299.737 153.52Q300.181 154.676 300.569 155.852Q300.956 157.028 301.286 158.222Q301.615 159.416 301.885 160.625Q302.156 161.833 302.367 163.054Q302.578 164.274 302.729 165.504Q302.88 166.733 302.97 167.968Q303.06 169.203 303.09 170.441Q303.12 171.68 303.089 172.918Q303.058 174.156 302.967 175.391Q302.875 176.626 302.723 177.855Q302.571 179.084 302.359 180.305Q302.147 181.525 301.876 182.733Q301.604 183.942 301.274 185.135Q300.943 186.329 300.555 187.505Q300.166 188.681 299.72 189.836Q299.275 190.992 298.773 192.124Q298.271 193.257 297.715 194.363Q297.158 195.469 296.548 196.547Q295.937 197.625 295.275 198.671Q294.613 199.718 293.9 200.731Q293.187 201.744 292.426 202.72Q291.664 203.697 290.856 204.635Q290.047 205.574 289.194 206.471Q288.34 207.369 287.444 208.223Q286.547 209.078 285.61 209.887Q284.673 210.697 283.697 211.46Q282.721 212.222 281.709 212.936Q280.697 213.65 279.651 214.314Q278.606 214.977 277.529 215.589Q276.452 216.2 275.346 216.758Q274.24 217.316 273.108 217.819Q271.977 218.323 270.822 218.77Q269.667 219.217 268.491 219.607Q267.315 219.997 266.122 220.328Q264.929 220.66 263.721 220.933Q262.513 221.206 261.293 221.42Q260.073 221.633 258.844 221.787Q257.615 221.94 256.38 222.033Q255.142 222.126 253.9 222.159Q252.659 222.191 251.417 222.162Q250.176 222.133 248.937 222.044Q247.699 221.954 246.466 221.804Q245.233 221.653 244.01 221.442Q242.786 221.232 241.574 220.961Q240.362 220.69 239.165 220.36Q237.968 220.03 236.788 219.642Q235.609 219.254 234.45 218.808Q233.291 218.362 232.155 217.86Q231.019 217.358 229.909 216.8Q228.8 216.243 227.719 215.632Q226.638 215.02 225.588 214.357Q224.539 213.693 223.523 212.979Q222.507 212.264 221.528 211.501Q220.548 210.737 219.608 209.927Q218.667 209.116 217.767 208.26Q216.867 207.404 216.011 206.505Q215.154 205.606 214.343 204.666Q213.531 203.726 212.767 202.747Q212.003 201.768 211.288 200.753Q210.572 199.738 209.908 198.689Q209.243 197.64 208.631 196.559Q208.019 195.479 207.461 194.37Q206.903 193.261 206.399 192.125Q205.896 190.99 205.45 189.831Q205.003 188.673 204.613 187.493Q204.224 186.314 203.893 185.117Q203.562 183.92 203.291 182.709Q203.019 181.497 202.807 180.273Q202.596 179.05 202.444 177.817Q202.293 176.585 202.202 175.346Q202.111 174.107 202.082 172.866Q202.052 171.625 202.083 170.383Q202.115 169.142 202.207 167.903Q202.299 166.665 202.452 165.433Q202.605 164.2 202.819 162.977Q203.032 161.754 203.305 160.542Q203.578 159.331 203.911 158.134Q204.243 156.938 204.634 155.759Q205.025 154.58 205.473 153.422Q205.921 152.264 206.426 151.129Q206.931 149.995 207.49 148.886Q208.05 147.778 208.664 146.698Q209.277 145.618 209.943 144.57Q210.609 143.522 211.325 142.508Q212.042 141.493 212.807 140.516Q213.573 139.538 214.386 138.599Q215.198 137.66 216.056 136.762Q216.914 135.864 217.815 135.009Q218.716 134.154 219.657 133.345Q220.599 132.536 221.579 131.773Q222.56 131.011 223.577 130.298Q224.593 129.585 225.644 128.923Q226.694 128.26 227.776 127.651Q228.858 127.041 229.968 126.485Q231.078 125.929 232.215 125.428Q233.351 124.927 234.511 124.483Q235.67 124.039 236.851 123.652Q238.031 123.265 239.228 122.937Q240.426 122.608 241.638 122.339Q242.85 122.07 244.075 121.861Q245.299 121.652 246.531 121.503Q247.764 121.354 249.003 121.266Z"/>
	<path fill="#002846" d="M429.317 58.2052C431.069 51.8128 431.332 48.1254 436.071 43.0081C437.601 41.3555 439.195 39.8397 441.153 38.7038C447.823 34.835 454.284 35.398 461.411 37.3218C466.551 38.7091 469.912 41.3517 472.543 45.965C475.172 50.5756 475.57 54.1528 475.329 59.3783C475.238 61.3592 475.166 63.3126 474.634 65.2362C473.024 71.0605 468.781 75.6785 463.586 78.5494C462.644 79.0699 461.824 79.5233 461.046 80.2896C456.233 80.9178 451.039 81.1594 446.228 80.4061C444.902 83.6731 444.216 87.1275 442.904 90.3482C441.6 93.5511 439.985 96.6597 438.606 99.84Q434.622 109.033 431.048 118.393C430.414 120.012 429.138 121.978 428.814 123.631C428.711 124.156 428.754 124.701 428.755 125.231C428.756 125.365 428.75 125.499 428.748 125.633L428.747 125.874C432.737 126.718 436.004 129.738 438.209 133.084C441.69 138.369 444.762 146.721 443.518 153.089C443.207 154.684 442.578 156.239 442.008 157.759C439.571 164.258 435.828 169.379 429.926 173.184C423.546 177.298 414.945 178.332 407.583 176.644C403.339 175.67 402.67 173.925 397.512 173.747C396.585 175.64 395.221 177.23 394.229 179.103C394.214 179.132 394.19 179.155 394.171 179.181C393.535 180.606 392.824 182.031 392.256 183.482C390.286 187.952 388.004 192.46 385.302 196.54C384.068 198.403 382.477 200.047 381.387 202.002C373.035 216.975 365.972 232.602 358.962 248.222C355.472 255.999 350.788 263.827 349.591 272.394C348.539 273.299 348.323 272.121 347.437 274.246L347.582 274.668C347.282 274.88 346.633 275.189 346.587 275.559C346.471 276.502 347.417 277.968 347.713 278.912C347.113 279.459 346.482 279.972 346.003 280.63L346.192 280.824C344.507 282.978 342.838 291.476 341.961 294.609C340.568 299.588 338.717 305.368 337.779 310.395C337.2 313.494 337.276 316.684 336.69 319.769C336.257 322.045 335.528 324.26 335.125 326.538C334.735 328.739 334.626 330.986 334.178 333.176C333.628 335.866 332.84 338.522 332.423 341.238C331.934 344.43 331.96 347.685 331.501 350.884C330.835 355.528 329.968 360.104 329.63 364.793C329.048 372.874 329.406 381.109 329.391 389.211C329.376 396.984 329.179 404.746 330.096 412.486C330.428 415.288 331.281 417.975 331.776 420.745C332.235 423.317 332.361 425.943 332.794 428.519C333.251 431.241 334.096 433.883 334.642 436.588C335.494 440.817 336.341 445.096 337.023 449.354C337.421 451.84 337.548 454.435 338.109 456.886C339.368 462.378 341.663 467.819 343.762 473.025C344.78 475.552 345.641 478.128 346.704 480.641C347.754 483.124 353.462 494.881 353.397 496.195C353.018 496.081 346.986 489.923 346.653 489.273C346.542 489.056 346.442 488.832 346.342 488.609C342.096 486.419 339.97 480.985 337.024 477.429C335.029 475.02 332.806 472.82 330.794 470.433C327.895 466.995 325.103 463.224 322.408 459.617Q315.588 450.295 309.611 440.411Q303.634 430.526 298.548 420.156C297.361 417.767 295.933 415.49 294.797 413.078C291.787 406.687 289.205 399.688 287.053 392.963C286.218 390.353 286.093 387.775 285.559 385.12C285.161 383.141 284.303 381.437 284.222 379.371C283.47 375.556 283.685 371.095 283.336 367.185C282.936 362.755 282.423 358.284 282.414 353.833C282.395 344.154 283.629 334.361 284.238 324.695C284.43 321.639 286.067 320.228 286 318.404C285.939 316.748 285.118 315.213 284.447 313.735C281.386 306.985 280.282 303.244 281.506 295.575C282.535 289.13 285.459 283.457 290.821 279.641C294.096 276.948 298.056 276.808 301.718 275.05C302.458 274.554 303.365 274.375 304.214 274.118C306.422 271.714 307.924 268.792 309.643 266.038C311.969 262.31 314.311 258.738 317.046 255.294C319.777 251.853 322.614 248.368 325.504 245.064C327.593 242.678 329.799 240.397 331.793 237.929C335.941 232.796 339.745 227.016 344.078 222.057C350.826 214.334 358.309 207.136 365.494 199.818C368.75 197.697 373.767 194.705 375.613 191.167C377.375 189.828 378.967 187.591 380.498 185.964L388.824 177.002C390.164 175.545 391.735 174.071 392.904 172.481C393.663 171.448 393.64 169.82 393.45 168.607C393.096 166.348 391.436 162.906 389.502 161.557L389.767 161.535L389.887 161.157C389.545 160.229 389.253 159.051 388.66 158.26Q388.393 156.692 388.192 155.114C387.186 146.775 388.051 142.07 391.581 134.568C392.277 133.089 393.014 130.915 394.083 129.683C395.484 128.07 397.746 127.053 399.545 125.952C404.568 122.877 410.167 120.714 416.125 120.959C418.747 121.068 421.347 121.408 423.975 121.23L424.385 121.199C424.516 119.913 424.543 118.602 424.613 117.311L424.78 117.108C424.872 116.995 424.961 116.879 425.054 116.766C427.063 114.352 430.654 104.123 431.858 100.556C432.357 98.6127 433.429 96.9559 434.322 95.1807C436.963 89.9347 439.441 85.1309 440.435 79.3114C440.4 78.9221 440.437 78.2166 440.307 77.8725C440.062 77.2277 438.414 76.0626 437.881 75.5395C436.044 73.737 434.21 71.5558 432.961 69.2981C431.055 65.8528 430.828 61.7821 429.317 58.2052Z"/>
	<path fill="#00142A" d="M392.256 183.482L391.345 183.36L391.13 183.019L391.921 182.759C391.833 182.189 391.648 181.437 391.681 180.868C391.722 180.178 392.058 179.985 392.523 179.55L393.427 179.887C393.554 179.489 393.69 179.115 393.863 178.734L394.171 179.181C393.535 180.606 392.824 182.031 392.256 183.482Z"/>
	<path fill="#00142A" d="M301.718 275.05L301.923 275.705C301.6 276.23 301.167 276.515 300.579 276.681C297.468 277.557 295.592 277.536 292.511 279.144C291.947 279.439 291.417 280.021 290.821 279.641C294.096 276.948 298.056 276.808 301.718 275.05Z"/>
	<path fill="#00142A" d="M440.435 79.3114L440.977 79.2719C441.221 78.9216 441.414 78.423 441.839 78.3437C442.108 78.878 442.095 79.0025 442.059 79.6066C441.161 80.5919 440.471 79.4573 440.513 81.9743C440.548 84.1523 441.277 87.1542 439.497 88.9045C438.906 89.4863 438.263 89.7352 437.498 90.0188C435.86 92.1632 436.787 97.4816 434.305 98.6578L433.067 98.4373C432.792 99.17 432.554 99.9061 432.324 100.654L432.036 100.75L431.858 100.556C432.357 98.6127 433.429 96.9559 434.322 95.1807C436.963 89.9347 439.441 85.1309 440.435 79.3114Z"/>
	<defs>
		<linearGradient id="gradient_1" gradientUnits="userSpaceOnUse" x1="221.0303" y1="463.84961" x2="123.50442" y2="161.95685">
			<stop offset="0" stop-color="#3571AB"/>
			<stop offset="1" stop-color="#4A91D9"/>
		</linearGradient>
	</defs>
	<path fill="url(#gradient_1)" d="M101.659 169.665L101.603 169.334C102.068 168.664 102.426 168.129 103.129 167.68L104.736 168.685C106.956 171.049 109.524 173.054 112.039 175.087C116.854 178.518 120.652 182.245 125.164 185.931C129.211 189.238 133.58 192.235 137.841 195.26C140.989 197.495 144.666 198.831 147.81 201.029C155.314 206.273 163.023 211.499 170.187 217.196C175.365 221.314 180.195 225.955 185.288 230.198C189.121 233.391 193.237 236.257 196.948 239.59C199.9 242.242 202.568 245.187 205.486 247.877C208.229 250.406 211.3 252.397 214.067 254.837C218.47 258.72 222.304 263.73 225.865 268.367C227.965 271.1 229.62 274.397 231.389 277.367C233.6 281.08 235.972 284.696 238.061 288.481C239.695 291.442 241.102 294.547 242.576 297.591C244.535 301.636 246.683 305.812 248.267 310.015C249.657 313.703 250.621 317.623 251.755 321.397C252.529 323.973 253.605 326.646 254.056 329.297C254.44 331.562 254.553 333.873 254.94 336.138C255.44 339.065 256.276 341.937 256.533 344.903C257.057 350.949 256.807 357.201 256.79 363.271C256.777 368.123 257.086 373.206 256.703 378.027C256.477 380.879 255.551 383.692 255.024 386.503C254.61 388.712 254.348 390.963 253.859 393.156C252.416 399.631 249.374 408.872 246.437 414.727C244.774 418.043 242.623 421.25 240.644 424.392C239.134 426.79 237.709 429.242 236.046 431.538C234.38 433.839 232.601 436.061 230.956 438.377C229.53 440.385 228.274 442.576 226.682 444.454C224.948 446.5 222.801 448.301 220.861 450.153C219.068 451.864 217.42 453.756 215.564 455.393C211.735 458.769 207.512 461.451 203.304 464.306C200.908 465.931 198.554 467.742 196.012 469.132C192.916 470.826 189.502 471.31 186.431 472.957C176.141 478.478 164.591 483.842 152.953 485.697C152.159 485.824 151.447 485.878 150.649 485.79L150.453 485.512C152.071 481.185 157.798 474.467 160.512 470.3C162.979 466.512 165.057 462.061 166.836 457.902C170.218 449.997 173.041 440.591 174.164 432.048C174.52 429.341 174.544 426.61 174.827 423.898C175.119 421.09 175.805 418.327 176.17 415.528C176.682 411.584 176.827 407.446 176.975 403.468C177.399 392.062 176.662 380.634 177.26 369.226L177.056 368.872C178.25 368.268 179.813 368.073 181.094 367.595C185.591 365.921 190.115 363.387 193.276 359.708C197.976 354.237 199.651 347.141 199.055 340.06C198.451 332.875 194.932 325.215 189.336 320.557C185.137 317.062 177.407 313.762 171.926 313.85C169.639 313.886 167.498 314.515 165.286 314.661C165.177 314.669 165.068 314.672 164.959 314.678C165.351 311.016 162.599 306.133 161.497 302.636C160.778 300.356 160.45 297.965 159.734 295.675C156.613 285.696 153.161 275.644 149.414 265.884C147.275 260.314 144.664 255.025 142.172 249.617C139.648 244.138 137.438 238.484 134.838 233.048C133.716 230.702 132.402 228.452 131.247 226.122C129.556 222.707 128.07 219.211 126.302 215.828C124.995 213.326 123.496 210.914 122.23 208.395C120.745 205.443 119.732 202.243 118.173 199.328C114.372 192.221 102.802 176.858 101.659 169.665Z"/>
</svg>
